<?xml version="1.0" encoding="UTF-8" standalone="no"?>
<!-- Created with Inkscape (http://www.inkscape.org/) -->

<svg
   xmlns:dc="http://purl.org/dc/elements/1.1/"
   xmlns:cc="http://creativecommons.org/ns#"
   xmlns:rdf="http://www.w3.org/1999/02/22-rdf-syntax-ns#"
   xmlns:svg="http://www.w3.org/2000/svg"
   xmlns="http://www.w3.org/2000/svg"
   xmlns:sodipodi="http://sodipodi.sourceforge.net/DTD/sodipodi-0.dtd"
   xmlns:inkscape="http://www.inkscape.org/namespaces/inkscape"
   width="210mm"
   height="297mm"
   viewBox="0 0 210 297"
   version="1.1"
   id="svg8"
   inkscape:version="0.92.3 (2405546, 2018-03-11)"
   sodipodi:docname="My_Sig.svg">
  <defs
     id="defs2" />
  <sodipodi:namedview
     id="base"
     pagecolor="#ffffff"
     bordercolor="#666666"
     borderopacity="1.0"
     inkscape:pageopacity="0.0"
     inkscape:pageshadow="2"
     inkscape:zoom="0.98994949"
     inkscape:cx="258.51596"
     inkscape:cy="686.5722"
     inkscape:document-units="mm"
     inkscape:current-layer="layer1"
     showgrid="false"
     inkscape:window-width="1920"
     inkscape:window-height="1057"
     inkscape:window-x="-8"
     inkscape:window-y="-8"
     inkscape:window-maximized="1" />
  <metadata
     id="metadata5">
    <rdf:RDF>
      <cc:Work
         rdf:about="">
        <dc:format>image/svg+xml</dc:format>
        <dc:type
           rdf:resource="http://purl.org/dc/dcmitype/StillImage" />
        <dc:title></dc:title>
      </cc:Work>
    </rdf:RDF>
  </metadata>
  <g
     inkscape:label="Layer 1"
     inkscape:groupmode="layer"
     id="layer1">
    <text
       xml:space="preserve"
       style="font-style:normal;font-variant:normal;font-weight:normal;font-stretch:normal;font-size:9.37408543px;line-height:1.25;font-family:Kornucopia;-inkscape-font-specification:Kornucopia;letter-spacing:0px;word-spacing:0px;fill:#000000;fill-opacity:1;stroke:none;stroke-width:0.23435213"
       x="96.154503"
       y="78.544426"
       id="text4520"
       transform="scale(1.128999,0.88574038)"><tspan
         sodipodi:role="line"
         id="tspan4518"
         x="96.154503"
         y="78.544426"
         style="font-size:44.9956131px;stroke-width:0.23435213">in</tspan></text>
    <text
       xml:space="preserve"
       style="font-style:normal;font-variant:normal;font-weight:normal;font-stretch:normal;font-size:10.58333302px;line-height:1.25;font-family:Kornucopia;-inkscape-font-specification:Kornucopia;letter-spacing:0px;word-spacing:0px;fill:#000000;fill-opacity:1;stroke:none;stroke-width:0.26458332"
       x="117.17262"
       y="150.34523"
       id="text4524"><tspan
         sodipodi:role="line"
         id="tspan4522"
         x="117.17262"
         y="159.75148"
         style="stroke-width:0.26458332" /></text>
    <text
       xml:space="preserve"
       style="font-style:normal;font-variant:normal;font-weight:normal;font-stretch:normal;font-size:10.53199577px;line-height:1.25;font-family:Kornucopia;-inkscape-font-specification:Kornucopia;letter-spacing:0px;word-spacing:0px;fill:#000000;fill-opacity:1;stroke:none;stroke-width:0.26329991"
       x="92.646133"
       y="73.500816"
       id="text4528"
       transform="scale(1.128999,0.88574038)"><tspan
         sodipodi:role="line"
         id="tspan4526"
         x="92.646133"
         y="73.500816"
         style="font-size:50.55358124px;stroke-width:0.26329991">j</tspan></text>
    <text
       xml:space="preserve"
       style="font-style:normal;font-variant:normal;font-weight:normal;font-stretch:normal;font-size:9.37408543px;line-height:1.25;font-family:Kornucopia;-inkscape-font-specification:Kornucopia;letter-spacing:0px;word-spacing:0px;fill:#000000;fill-opacity:1;stroke:none;stroke-width:0.23435213"
       x="107.74748"
       y="81.553291"
       id="text4532"
       transform="scale(1.128999,0.88574038)"><tspan
         sodipodi:role="line"
         id="tspan4530"
         x="107.74748"
         y="81.553291"
         style="font-size:44.9956131px;stroke-width:0.23435213">x</tspan></text>
    <text
       xml:space="preserve"
       style="font-style:normal;font-variant:normal;font-weight:normal;font-stretch:normal;font-size:9.37408543px;line-height:1.25;font-family:Kornucopia;-inkscape-font-specification:Kornucopia;letter-spacing:0px;word-spacing:0px;fill:#000000;fill-opacity:1;stroke:none;stroke-width:0.23435213"
       x="73.421417"
       y="78.380745"
       id="text4536"
       transform="scale(1.128999,0.88574038)"><tspan
         sodipodi:role="line"
         id="tspan4534"
         x="73.421417"
         y="78.380745"
         style="font-size:44.9956131px;stroke-width:0.23435213">igh</tspan></text>
    <path
       id="text4540"
       style="font-style:normal;font-variant:normal;font-weight:normal;font-stretch:normal;font-size:10.58333302px;line-height:1.25;font-family:Kornucopia;-inkscape-font-specification:Kornucopia;letter-spacing:0px;word-spacing:0px;fill:#000000;fill-opacity:1;stroke:none;stroke-width:0.23017308"
       d="m 74.148009,49.233557 c -0.08268,8e-4 -0.148114,0.0453 -0.196371,0.13337 -0.0646,0.10069 -0.129752,0.15116 -0.195852,0.15174 -0.04961,4e-4 -0.116219,-0.0175 -0.199472,-0.0544 -0.0038,0.82607 0.06374,1.45096 0.20257,1.87527 0.06097,0.73789 0.0013,1.16425 -0.1788,1.27848 -0.02267,0.67604 0.02738,1.23259 0.149862,1.66956 0.508593,1.88539 0.813607,2.92115 0.915707,3.10799 0.05114,0.0997 0.06197,0.2688 0.03256,0.50685 -0.02941,0.23806 0.02262,0.39383 0.156064,0.46775 0.132303,1.07518 0.476039,1.91102 1.030944,2.50688 -0.03211,0.0629 -0.04779,0.11929 -0.04702,0.16935 0.0024,0.15016 0.12864,0.29277 0.378788,0.42824 0.316865,0.17243 0.509087,0.2896 0.576191,0.35159 0.165354,-0.001 0.287173,-0.11505 0.366387,-0.34103 0.07921,-0.22598 0.18501,-0.33947 0.317293,-0.34064 l 0.140042,0.0336 c 0.02209,-0.0379 0.05456,-0.0774 0.09457,-0.11693 -0.08136,-0.30294 0.16002,-0.56634 0.580324,-0.53658 0.03196,0.002 0.06768,0.0117 0.101803,0.018 0.04929,-0.0372 0.09904,-0.0743 0.145212,-0.1138 0.05137,-0.0439 0.09089,-0.0954 0.131257,-0.14549 0.01691,-0.021 0.04405,-0.0916 0.03979,-0.0673 -0.03224,0.18446 -0.112561,0.0524 0.05478,0.20924 0.03607,-0.0645 0.07608,-0.12708 0.143661,-0.18147 -0.03723,-0.1496 -0.06756,-0.29591 0.01085,-0.2941 0.02806,6e-4 0.06978,0.0198 0.128675,0.0637 0.01762,0.0132 0.03877,0.0243 0.05839,0.0364 0.01291,-0.0283 0.02828,-0.053 0.03927,-0.0841 0.109971,-0.37644 0.247205,-0.62156 0.410826,-0.73564 l 0.100254,0.0927 c -0.03714,0.16782 -0.03836,0.4643 -0.02016,0.83107 0.149204,0.0232 0.239869,0.0691 0.346747,0.27142 0.0078,0.0147 -0.0031,0.0691 -0.0181,0.13101 0.039,0.0169 0.07835,0.0333 0.115239,0.0528 0.02254,0.0119 -0.04316,0.0251 -0.06149,0.0414 0.0048,0.005 0.0085,0.0105 0.01344,0.0153 0.128746,0.12562 0.05438,0.112 -0.07803,0.0509 -0.04313,0.0436 -0.01252,0.0135 -0.04083,0.0426 -0.007,0.0264 -0.01942,0.0679 -0.02169,0.0821 3.7e-5,0.0281 -0.0013,0.0564 0,0.0845 0.006,0.12995 0.0091,0.11788 -0.04858,0.23348 0.06615,0.0454 0.117041,0.0894 0.122473,0.12828 0.01056,0.0755 0.0034,0.15104 -0.0098,0.22644 7.93e-4,10e-4 0.0024,0.002 0.0031,0.004 0.007,10e-6 0.01151,4e-4 0.0186,4e-4 0.04456,0 3e-6,0.0676 0,0.10129 v 0.004 c 7.94e-4,0.0394 0,0.0881 0,0.14744 -7e-6,0.15179 6.7e-5,0.30343 5.3e-4,0.45523 -4.5e-5,0.14551 -1.8e-4,0.29094 0,0.43646 0.05725,0.0674 0.111416,0.13887 0.131775,0.18576 0.05006,0.11527 0.03902,0.22674 0.02429,0.33986 0.0031,-0.003 0.0046,-0.008 0.0098,-0.01 0.0314,-0.0133 0.0312,0.0492 0.04238,0.0751 0.07168,0.16615 0.08604,0.32192 0.07441,0.48573 0.01654,0.006 0.03129,0.0609 0.04289,0.0845 0.03093,0.0628 0.0634,0.1255 0.08062,0.19124 0.02756,0.10531 0.0303,0.12822 0.03876,0.17052 0.01053,0.0158 0.02588,0.0424 0.04806,0.0868 0.122394,0.25672 0.03153,0.52159 0.03462,0.78452 0.0029,0.0807 0.0053,0.16135 0.0078,0.24209 0.01662,0.55345 -0.384479,0.8067 -0.751374,0.75441 0.04827,1.28732 0.08541,2.42144 0.09767,3.21828 0.0871,0.2871 0.2456,0.39195 0.475938,0.31483 0.412229,-0.0787 0.665305,-0.29364 0.759127,-0.64491 0.164872,-0.71385 0.296301,-1.43916 0.40101,-2.17329 -0.02938,-0.0866 -0.04806,-0.18352 -0.04806,-0.29488 v -0.30309 c 0,-0.20225 1.9e-5,-0.40472 0,-0.60697 -3.2e-5,-0.2023 -2.01e-4,-0.40468 0,-0.60697 0,-0.20358 -0.0013,-0.40692 0,-0.6105 0.0021,-0.19864 0.0044,-0.3975 -0.0083,-0.59602 0.0011,-0.12828 0.0074,-0.25431 0.02894,-0.3817 0.0013,-0.008 -7.94e-4,-0.0218 -0.0016,-0.0336 -0.186563,-0.22698 -0.157559,-0.46537 -0.152961,-0.74816 v -1.52369 c 0,-0.21736 0.06518,-0.38465 0.163814,-0.50763 -0.114882,-0.60763 -0.182459,-1.1538 -0.189653,-1.62146 -0.01077,-0.70079 0.08736,-1.3212 0.294039,-1.8612 0.06633,0.0119 0.164846,-0.0329 0.29559,-0.13414 -0.01789,-0.0875 0.02656,-0.40693 0.133842,-0.95856 0.06017,-0.38852 -0.02723,-0.68842 -0.262001,-0.89912 l -0.295587,0.11537 -0.126608,-0.16778 c 0.09228,-0.45137 0.105698,-1.18981 0.04031,-2.21552 -0.06443,-0.96314 -0.02619,-1.70192 0.114724,-2.21631 -0.05095,-0.0872 -0.159176,-0.13012 -0.324528,-0.12867 -0.181697,0.0141 -0.289594,-0.0226 -0.324011,-0.10989 -0.264568,0.002 -0.456697,-0.10233 -0.575675,-0.31405 -0.186894,-0.32376 -0.313661,-0.50391 -0.380339,-0.54087 -0.198424,0.002 -0.320701,0.0966 -0.367421,0.28471 l -0.142111,0.45171 -0.02739,3.06028 c 0.154207,0.34908 0.234461,0.73019 0.240811,1.14315 0.0061,0.39692 -0.128059,1.10518 -0.379304,2.07356 0.03791,0.0571 0.05483,0.12545 0.03049,0.20845 -0.0067,0.023 -0.03743,0.13336 -0.05736,0.20141 0.114363,0.0473 0.206473,0.13638 0.21704,0.28355 0.0061,0.0853 0.02506,0.34231 -0.100253,0.37388 -0.04645,0.056 -0.09997,0.14557 -0.176215,0.21275 -0.0033,0.0156 -0.0021,0.0321 -0.01188,0.0767 -0.04715,0.21431 -0.200057,0.31888 -0.3483,0.32852 -0.06418,0.0532 -0.127852,0.0963 -0.189135,0.13962 0.03098,0.0676 0.05256,0.13683 0.05168,0.20728 -0.0016,0.1316 -0.477113,0.29921 -0.753444,0.43019 -0.04327,0.0531 -0.01437,0.0188 -0.08785,0.10755 -0.05467,0.0661 -0.113956,0.1136 -0.173633,0.14705 -0.03905,0.0396 -0.08745,0.055 -0.138494,0.0524 -0.07858,0.0151 -0.151048,0.004 -0.208772,-0.0246 -0.05545,0.0484 -0.112799,0.0957 -0.165364,0.14588 -0.01111,0.0106 -0.02014,0.0224 -0.03101,0.0332 -0.03218,0.0631 -0.07846,0.11009 -0.132291,0.1404 -7.94e-4,0.001 -0.0019,0.002 -0.0026,0.003 0.05865,0.091 0.04859,0.18108 -0.121957,0.23934 -0.231029,0.0789 -0.271743,0.11349 -0.560689,-0.2503 -0.04545,-0.0572 0.05609,-0.19592 0.195855,-0.34494 0.003,-0.0812 0.0033,-0.1625 -5.29e-4,-0.24365 -1.83e-4,-0.003 -1.86e-4,-0.005 -5.3e-4,-0.008 -0.05755,-0.003 -0.113932,-0.0101 -0.168465,-0.0254 -0.07211,-0.0202 -0.01074,-0.11919 0.01497,-0.17403 0.0058,-0.0125 0.01836,-0.0238 0.02635,-0.036 0.0078,-0.18764 -0.0062,-0.37515 -0.01035,-0.56278 0.0024,-0.20145 0.0038,-0.40316 0.0031,-0.60462 -1.03e-4,-0.0337 6.9e-5,-0.0672 0,-0.10091 -1.11e-4,-0.0443 -7.94e-4,-0.0752 -5.29e-4,-0.10442 -0.122859,-0.19671 -0.320508,-0.43418 -0.34313,-0.55965 -0.0114,-0.0633 -0.02037,-0.13132 0.0031,-0.19241 -0.11281,-0.21915 -0.07847,-0.4534 -0.05633,-0.68402 0.003,-0.19469 -0.0059,-0.38955 -0.0052,-0.58429 0.0019,-0.17187 0.0013,-0.34363 0.0011,-0.51545 -0.06183,-0.37439 -0.09596,-0.7188 -0.100769,-1.0317 -0.0046,-0.2995 0.01588,-0.58653 0.06098,-0.86157 -0.0033,-0.004 -0.0073,-0.008 -0.0098,-0.0129 -0.02408,-0.0434 -0.04279,-0.0884 -0.06408,-0.13257 -0.01519,-0.0484 -0.03652,-0.0962 -0.04547,-0.14549 -0.009,-0.0495 -0.0099,-0.0999 -0.0078,-0.14979 0.0013,-0.0278 0.01585,-0.0737 0.02842,-0.1185 -0.01058,-0.0588 -0.01968,-0.10942 -0.02945,-0.16425 -0.05685,-0.0675 -0.08498,-0.13732 -0.102838,-0.20807 -0.0024,-0.003 -0.0055,-0.006 -0.0078,-0.009 -0.03437,-0.0493 -0.04696,-0.10586 -0.07028,-0.15878 0.05499,-0.10013 -0.165711,-0.20895 -0.213423,-0.30309 -0.03313,-0.0654 -0.06267,-0.13217 -0.08423,-0.20024 -0.02577,-0.008 -0.0534,-0.0132 -0.07855,-0.0223 -0.03674,-0.0133 -0.01826,-0.0599 -0.02946,-0.0896 -0.204324,-0.54122 -0.0048,0.0426 -0.245464,-0.69888 -0.02048,-0.0631 -0.0258,-0.11808 -0.0217,-0.16661 -0.255254,-0.4671 -0.434552,-0.83626 -0.537951,-1.10756 -0.06633,-0.0119 -0.124545,-0.0176 -0.174149,-0.0172 z m 1.197343,1.78337 c -0.0059,-0.002 -0.02299,0.004 -0.01707,0.006 0.03358,0.0109 0.06803,0.0203 0.101804,0.0309 -0.02815,-0.0124 -0.05558,-0.0265 -0.08475,-0.0368 z m 6.154145,12.37605 c 6.1e-5,0.0763 -0.01712,0.16922 0.151929,0.12593 -0.06097,-0.0418 -0.109485,-0.0837 -0.151929,-0.12593 z"
       inkscape:connector-curvature="0" />
    <path
       id="text4544"
       style="font-style:normal;font-variant:normal;font-weight:normal;font-stretch:normal;font-size:9.41656685px;line-height:1.25;font-family:Kornucopia;-inkscape-font-specification:Kornucopia;letter-spacing:0px;word-spacing:0px;fill:#000000;fill-opacity:1;stroke:none;stroke-width:0.21300589"
       d="m 74.692035,50.011817 c -0.33746,0.0957 -0.536889,0.31283 -0.595428,0.65417 -0.318047,2.26843 -0.362957,4.62863 -0.135396,7.08015 0.327855,1.10983 0.520184,2.0413 0.576771,2.79344 0.05194,0.69047 0.0045,1.30525 -0.141794,1.84478 -0.05821,-0.009 -0.140732,0.0379 -0.247872,0.14231 0.02083,0.0856 0.0013,0.40192 -0.05811,0.94947 -0.02848,0.3851 0.06574,0.67772 0.281991,0.87728 l 0.248939,-0.12387 0.120471,0.16078 c -0.05253,0.44818 -0.01935,1.1767 0.09969,2.1856 0.114386,0.94726 0.12603,1.67732 0.03518,2.1893 0.04945,0.0842 0.145717,0.12243 0.28892,0.11525 0.156591,-0.0202 0.252719,0.0119 0.287853,0.0968 0.229119,-0.0115 0.40159,0.085 0.5176,0.28955 0.181639,0.31268 0.302417,0.48635 0.362483,0.52047 0.171805,-0.009 0.272132,-0.10656 0.301177,-0.29367 l 0.09542,-0.44992 -0.162583,-3.01817 c -0.154856,-0.33878 -0.247113,-0.71196 -0.277725,-1.11885 -0.03526,-0.46854 0.06364,-1.34574 0.297447,-2.63224 l 0.234013,-0.0488 c 0.157929,-0.19356 0.319322,-0.52953 0.484554,-1.00811 0.179515,-0.4793 0.369486,-0.8169 0.570374,-1.01262 0.108586,0.10595 0.155176,0.2398 0.138595,0.40152 -5.46e-4,0.0289 0.0025,0.0552 0.0059,0.0816 0.05914,-0.009 0.121942,-0.0144 0.190832,-0.009 0.03368,0.002 0.07074,0.0112 0.106614,0.0177 0.05029,-0.0387 0.101069,-0.0771 0.148191,-0.11812 0.05299,-0.046 0.09376,-0.10007 0.135396,-0.15256 0.01744,-0.022 0.04544,-0.0961 0.04105,-0.0705 -0.03332,0.19379 -0.11633,0.0543 0.05757,0.22024 0.03721,-0.069 0.07531,-0.13753 0.146059,-0.19563 -0.03778,-0.15517 -0.06782,-0.30579 0.01226,-0.30391 0.02894,6.3e-4 0.07198,0.0208 0.132732,0.0668 0.0522,0.0396 0.115049,0.0733 0.171111,0.11073 0.0039,-6.3e-4 0.0066,-0.002 0.01068,-0.002 0.07578,-0.0128 0.154577,0.0101 0.23188,0.0151 0.283125,0.0344 0.40116,0.0197 0.551184,0.30841 0.008,0.0155 -0.0032,0.0725 -0.01867,0.1374 0.04023,0.0177 0.08082,0.0349 0.118873,0.0554 0.02325,0.0125 -0.04452,0.0263 -0.06343,0.0435 0.005,0.005 0.0088,0.011 0.01386,0.016 0.132807,0.13174 0.0561,0.11747 -0.08049,0.0533 -0.02708,0.0278 -0.02069,0.0221 -0.04212,0.0443 -0.0072,0.0279 -0.02003,0.0716 -0.02238,0.0865 3.8e-5,0.0294 -0.0013,0.0592 0,0.0886 0.0062,0.13463 0.0089,0.12546 -0.04798,0.24116 0.07051,0.0491 0.118429,0.0962 0.124204,0.13822 0.0333,0.24208 -0.07332,0.4855 -0.165784,0.71896 0.0055,0.0113 0.01094,0.0253 0.0176,0.055 0.03348,0.14924 0.03793,0.29287 0.03198,0.44377 -0.02022,0.20303 -0.01089,0.40654 -0.0086,0.60987 2.37e-4,0.21346 -0.0013,0.42718 -0.0011,0.64062 1.56e-4,0.14138 5.46e-4,0.0705 5.46e-4,0.21205 2.18e-4,0.30596 -0.118316,0.51986 -0.28412,0.6476 0.03409,0.21053 0.06204,0.4139 0.07623,0.60249 0.02227,0.29592 0.02184,0.5809 -0.0011,0.85432 0.280779,1.24833 0.416129,1.89115 0.404592,1.92886 0.0199,0.0733 0.130017,0.10479 0.330499,0.0948 0.396557,0.68558 0.665589,1.20421 0.807052,1.55604 0.05821,0.009 0.108961,0.0132 0.151922,0.0111 0.0716,-0.003 0.125088,-0.0497 0.161516,-0.13822 0.04986,-0.10148 0.103706,-0.1538 0.160985,-0.15667 0.04295,-0.002 0.101534,0.0138 0.17591,0.0471 -0.0469,-0.8145 -0.143352,-1.42884 -0.289453,-1.84232 -0.09769,-0.72531 -0.07188,-1.14722 0.07729,-1.26609 -0.02146,-0.66725 -0.09864,-1.21402 -0.231349,-1.64053 -0.555357,-1.84103 -0.883129,-2.85189 -0.982962,-3.03254 -0.05038,-0.0965 -0.06966,-0.26261 -0.05864,-0.49831 0.011,-0.2357 -0.04406,-0.38743 -0.164182,-0.45567 -0.180019,-1.05536 -0.528241,-1.86725 -1.045331,-2.43537 0.02399,-0.0631 0.0341,-0.11966 0.03039,-0.16898 -0.0064,-0.0845 -0.05263,-0.16451 -0.130066,-0.24116 -0.07096,0.13778 -0.191974,0.20863 -0.311842,0.21654 -0.0662,0.0558 -0.131883,0.10097 -0.195098,0.14643 0.03196,0.0708 0.05422,0.14348 0.05331,0.21736 -0.0017,0.13803 -0.492158,0.31379 -0.777203,0.45115 -0.04463,0.0557 -0.01482,0.0197 -0.09062,0.11279 -0.05638,0.0693 -0.117549,0.11914 -0.179107,0.15422 -0.04028,0.0415 -0.09022,0.0577 -0.142862,0.0549 -0.08108,0.0158 -0.155803,0.005 -0.215355,-0.0259 -0.0572,0.0508 -0.116357,0.10033 -0.17058,0.15297 -0.01526,0.0148 -0.02784,0.0312 -0.04264,0.0464 -0.03253,0.0583 -0.07441,0.10569 -0.125267,0.13494 -0.0011,0.002 -0.0022,0.002 -0.0032,0.004 0.0605,0.0955 0.05012,0.18991 -0.125803,0.25099 -0.196245,0.0682 -0.266761,0.0907 -0.449368,-0.11155 -0.05792,0.16271 -0.125413,0.28561 -0.205762,0.35601 l -0.09276,-0.0882 c 0.06407,-0.4859 -0.108911,-1.7394 -0.519735,-3.76094 0.0097,-0.0624 -0.0063,-0.17947 -0.04798,-0.35066 -0.03978,-0.14653 -0.04795,-0.25108 -0.02399,-0.31416 0.03739,-0.0761 0.135268,-0.11189 0.293715,-0.10746 -0.177427,-1.77306 -0.300162,-3.11343 -0.394464,-4.23013 -0.03004,-0.0283 -0.05606,-0.0563 -0.0693,-0.0829 -0.03417,-0.0686 -0.06465,-0.1386 -0.08689,-0.20999 -0.02658,-0.009 -0.05508,-0.0138 -0.08103,-0.0234 -0.0379,-0.014 -0.01884,-0.0628 -0.03039,-0.0939 -0.210768,-0.56758 -0.005,0.0446 -0.253205,-0.73292 -0.02181,-0.0683 -0.02754,-0.12801 -0.02238,-0.18005 z m 0.490417,0.69969 c -0.0032,0.002 -0.01001,0.002 -0.0074,0.002 0.0027,7.8e-4 0.0054,0.002 0.008,0.002 -1.15e-4,-0.002 -5.46e-4,-0.003 -5.46e-4,-0.005 z m 3.6408,11.38657 c 0.06093,0.0408 0.188546,0.0749 0.137531,0.0591 -0.01269,-0.004 -0.09542,-0.0412 -0.137531,-0.0591 z m 0.856627,0.18169 c -0.06411,0.0377 -0.122693,0.0647 -0.0086,0.0115 0.0043,-0.005 0.0046,-0.007 0.0086,-0.0115 z"
       inkscape:connector-curvature="0" />
    <text
       xml:space="preserve"
       style="font-style:normal;font-variant:normal;font-weight:normal;font-stretch:normal;font-size:10.58333302px;line-height:1.25;font-family:Kornucopia;-inkscape-font-specification:Kornucopia;letter-spacing:0px;word-spacing:0px;fill:#000000;fill-opacity:1;stroke:none;stroke-width:0.26458332"
       x="61.20472"
       y="72.493599"
       id="text4814"><tspan
         sodipodi:role="line"
         id="tspan4812"
         x="61.20472"
         y="72.493599"
         style="font-size:50.79999924px;stroke-width:0.26458332">-</tspan></text>
    <text
       id="text4818"
       y="-64.814705"
       x="-132.74016"
       style="font-style:normal;font-variant:normal;font-weight:normal;font-stretch:normal;font-size:10.58333302px;line-height:1.25;font-family:Kornucopia;-inkscape-font-specification:Kornucopia;letter-spacing:0px;word-spacing:0px;fill:#000000;fill-opacity:1;stroke:none;stroke-width:0.26458332"
       xml:space="preserve"
       transform="rotate(172.41085)"><tspan
         style="font-size:50.79999924px;stroke-width:0.26458332"
         y="-64.814705"
         x="-132.74016"
         id="tspan4816"
         sodipodi:role="line">-</tspan></text>
  </g>
</svg>
